<svg xmlns="http://www.w3.org/2000/svg" viewBox="0 0 64 64" role="img" aria-label="Douyin">
  <rect width="64" height="64" rx="18" fill="#050506"/>
  <path fill="#00f2ea" d="M34.8 14h7.4c.7 4.1 3 7.4 6.8 9.7v7.2c-2.9-.1-5.8-1-8.2-2.6v13.4c0 7.9-5.6 12.8-12.6 12.8-6.7 0-12.2-5-12.2-11.5 0-7.5 6.7-12.7 14.3-11.4v7.2c-3.3-1-6.6 1-6.6 4.1 0 2.4 2 4.2 4.6 4.2 3 0 5-1.8 5-5.5V14h1.5Z" opacity=".9"/>
  <path fill="#ff0050" d="M38.8 14h3.4c.7 4.1 3 7.4 6.8 9.7v7.2c-2.9-.1-5.8-1-8.2-2.6v13.4c0 7.9-5.6 12.8-12.6 12.8-4.5 0-8.5-2.3-10.6-5.8 2.2 1.7 5 2.5 8.1 2.1 5.9-.8 10.1-5.4 10.1-12.1V14h3Z" opacity=".9"/>
  <path fill="#fff" d="M36.7 14h5.5c.7 4.1 3 7.4 6.8 9.7v5.2c-3.1-.1-6.2-1.2-8.8-3.2v15.1c0 7.9-5.6 12.8-12.6 12.8-6.7 0-12.2-5-12.2-11.5 0-7.5 6.7-12.7 14.3-11.4v5.4c-3.7-1.1-7.6 1.2-7.6 4.9 0 3 2.4 5.2 5.4 5.2 3.5 0 5.8-2.2 5.8-6.4V14h3.4Z"/>
</svg>
